<?xml version="1.0" encoding="UTF-8" standalone="no"?>
<svg
   viewBox="0 0 640 640"
   version="1.1"
   id="svg4"
   sodipodi:docname="diamond.svg"
   inkscape:version="1.2.2 (b0a8486541, 2022-12-01)"
   xmlns:inkscape="http://www.inkscape.org/namespaces/inkscape"
   xmlns:sodipodi="http://sodipodi.sourceforge.net/DTD/sodipodi-0.dtd"
   xmlns="http://www.w3.org/2000/svg"
   xmlns:svg="http://www.w3.org/2000/svg">
  <defs
     id="defs8" />
  <sodipodi:namedview
     id="namedview6"
     pagecolor="#ffffff"
     bordercolor="#000000"
     borderopacity="0.25"
     inkscape:showpageshadow="2"
     inkscape:pageopacity="0.0"
     inkscape:pagecheckerboard="0"
     inkscape:deskcolor="#d1d1d1"
     showgrid="false"
     inkscape:zoom="1.35625"
     inkscape:cx="320"
     inkscape:cy="320.36866"
     inkscape:window-width="1920"
     inkscape:window-height="1009"
     inkscape:window-x="1920"
     inkscape:window-y="32"
     inkscape:window-maximized="1"
     inkscape:current-layer="svg4" />
  <!--!Font Awesome Free v7.1.0 by @fontawesome - https://fontawesome.com License - https://fontawesome.com/license/free Copyright 2025 Fonticons, Inc.-->
  <path
     d="M232.5 136L320 229L407.5 136L232.5 136zM447.9 163.1L375.6 240L504.6 240L448 163.1zM497.9 288L142.1 288L320 484.3L497.9 288zM135.5 240L264.5 240L192.2 163.1L135.6 240zM569.8 280.1L337.8 536.1C333.3 541.1 326.8 544 320 544C313.2 544 306.8 541.1 302.2 536.1L70.2 280.1C62.5 271.6 61.9 258.9 68.7 249.7L180.7 97.7C185.2 91.6 192.4 87.9 200 87.9L440 87.9C447.6 87.9 454.8 91.5 459.3 97.7L571.3 249.7C578.1 258.9 577.4 271.6 569.8 280.1z"
     id="path2"
     style="fill:#ffbf00;fill-opacity:1" />
</svg>
