<?xml version="1.0" encoding="UTF-8" standalone="no"?>
<svg
   viewBox="0 0 640 640"
   version="1.1"
   id="svg4"
   sodipodi:docname="pencil.svg"
   inkscape:version="1.2.2 (b0a8486541, 2022-12-01)"
   xmlns:inkscape="http://www.inkscape.org/namespaces/inkscape"
   xmlns:sodipodi="http://sodipodi.sourceforge.net/DTD/sodipodi-0.dtd"
   xmlns="http://www.w3.org/2000/svg"
   xmlns:svg="http://www.w3.org/2000/svg">
  <defs
     id="defs8" />
  <sodipodi:namedview
     id="namedview6"
     pagecolor="#ffffff"
     bordercolor="#000000"
     borderopacity="0.25"
     inkscape:showpageshadow="2"
     inkscape:pageopacity="0.0"
     inkscape:pagecheckerboard="0"
     inkscape:deskcolor="#d1d1d1"
     showgrid="false"
     inkscape:zoom="1.35625"
     inkscape:cx="320"
     inkscape:cy="320.36866"
     inkscape:window-width="1920"
     inkscape:window-height="1009"
     inkscape:window-x="1920"
     inkscape:window-y="32"
     inkscape:window-maximized="1"
     inkscape:current-layer="svg4" />
  <!--!Font Awesome Free v7.1.0 by @fontawesome - https://fontawesome.com License - https://fontawesome.com/license/free Copyright 2025 Fonticons, Inc.-->
  <path
     d="M100.4 417.2C104.5 402.6 112.2 389.3 123 378.5L304.2 197.3L338.1 163.4C354.7 180 389.4 214.7 442.1 267.4L476 301.3L442.1 335.2L260.9 516.4C250.2 527.1 236.8 534.9 222.2 539L94.4 574.6C86.1 576.9 77.1 574.6 71 568.4C64.9 562.2 62.6 553.3 64.9 545L100.4 417.2zM156 413.5C151.6 418.2 148.4 423.9 146.7 430.1L122.6 517L209.5 492.9C215.9 491.1 221.7 487.8 226.5 483.2L155.9 413.5zM510 267.4C493.4 250.8 458.7 216.1 406 163.4L372 129.5C398.5 103 413.4 88.1 416.9 84.6C430.4 71 448.8 63.4 468 63.4C487.2 63.4 505.6 71 519.1 84.6L554.8 120.3C568.4 133.9 576 152.3 576 171.4C576 190.5 568.4 209 554.8 222.5C551.3 226 536.4 240.9 509.9 267.4z"
     id="path2"
     style="fill:#ffbf00;fill-opacity:1" />
</svg>
