<?xml version="1.0" encoding="UTF-8" standalone="no"?>
<svg
   viewBox="0 0 640 640"
   version="1.1"
   id="svg4"
   sodipodi:docname="ring.svg"
   inkscape:version="1.2.2 (b0a8486541, 2022-12-01)"
   xmlns:inkscape="http://www.inkscape.org/namespaces/inkscape"
   xmlns:sodipodi="http://sodipodi.sourceforge.net/DTD/sodipodi-0.dtd"
   xmlns="http://www.w3.org/2000/svg"
   xmlns:svg="http://www.w3.org/2000/svg">
  <defs
     id="defs8" />
  <sodipodi:namedview
     id="namedview6"
     pagecolor="#ffffff"
     bordercolor="#000000"
     borderopacity="0.25"
     inkscape:showpageshadow="2"
     inkscape:pageopacity="0.0"
     inkscape:pagecheckerboard="0"
     inkscape:deskcolor="#d1d1d1"
     showgrid="false"
     inkscape:zoom="1.35625"
     inkscape:cx="320"
     inkscape:cy="320.36866"
     inkscape:window-width="1920"
     inkscape:window-height="1009"
     inkscape:window-x="1920"
     inkscape:window-y="32"
     inkscape:window-maximized="1"
     inkscape:current-layer="svg4" />
  <!--!Font Awesome Free v7.1.0 by @fontawesome - https://fontawesome.com License - https://fontawesome.com/license/free Copyright 2025 Fonticons, Inc.-->
  <path
     d="M128 272C128 279.8 132.4 290.7 145.1 302.3C190.5 278.1 252.8 264 320 264C387.2 264 449.5 278.1 494.9 302.3C507.7 290.7 512 279.8 512 272C512 259.7 501.2 240 464.1 221.4C428.9 203.8 378 192 320 192C262 192 211.1 203.8 175.9 221.4C138.8 240 128 259.7 128 272zM320 312C273 312 230.7 319.6 197.1 331.7C230.3 344.1 272.8 352 320 352C367.2 352 409.7 344.2 442.9 331.7C409.3 319.6 367 312 320 312zM64 272C64 222.4 103.4 186.2 147.3 164.2C193.1 141.3 254.3 128 320 128C385.7 128 446.9 141.3 492.7 164.2C536.6 186.2 576 222.4 576 272L576 368C576 417.6 536.6 453.8 492.7 475.8C446.8 498.7 385.7 512 320 512C254.3 512 193.1 498.7 147.3 475.8C103.4 453.8 64 417.6 64 368L64 272z"
     id="path2"
     style="fill:#ffbf00;fill-opacity:1" />
</svg>
