<?xml version="1.0" encoding="UTF-8" standalone="no"?>
<svg
   viewBox="0 0 640 640"
   version="1.1"
   id="svg4"
   sodipodi:docname="shirt.svg"
   inkscape:version="1.2.2 (b0a8486541, 2022-12-01)"
   xmlns:inkscape="http://www.inkscape.org/namespaces/inkscape"
   xmlns:sodipodi="http://sodipodi.sourceforge.net/DTD/sodipodi-0.dtd"
   xmlns="http://www.w3.org/2000/svg"
   xmlns:svg="http://www.w3.org/2000/svg">
  <defs
     id="defs8" />
  <sodipodi:namedview
     id="namedview6"
     pagecolor="#ffffff"
     bordercolor="#000000"
     borderopacity="0.25"
     inkscape:showpageshadow="2"
     inkscape:pageopacity="0.0"
     inkscape:pagecheckerboard="0"
     inkscape:deskcolor="#d1d1d1"
     showgrid="false"
     inkscape:zoom="1.35625"
     inkscape:cx="320"
     inkscape:cy="320.36866"
     inkscape:window-width="1920"
     inkscape:window-height="1009"
     inkscape:window-x="1920"
     inkscape:window-y="32"
     inkscape:window-maximized="1"
     inkscape:current-layer="svg4" />
  <!--!Font Awesome Free v7.1.0 by @fontawesome - https://fontawesome.com License - https://fontawesome.com/license/free Copyright 2025 Fonticons, Inc.-->
  <path
     d="M320.2 176C364.4 176 400.2 140.2 400.2 96L453.7 96C470.7 96 487 102.7 499 114.7L617.6 233.4C630.1 245.9 630.1 266.2 617.6 278.7L566.9 329.4C554.4 341.9 534.1 341.9 521.6 329.4L480.2 288L480.2 512C480.2 547.3 451.5 576 416.2 576L224.2 576C188.9 576 160.2 547.3 160.2 512L160.2 288L118.8 329.4C106.3 341.9 86 341.9 73.5 329.4L22.9 278.6C10.4 266.1 10.4 245.8 22.9 233.3L141.5 114.7C153.5 102.7 169.8 96 186.8 96L240.3 96C240.3 140.2 276.1 176 320.3 176z"
     id="path2"
     style="fill:#ffbf00;fill-opacity:1" />
</svg>
