<?xml version="1.0" encoding="UTF-8" standalone="no"?>
<svg
   viewBox="0 0 640 640"
   version="1.1"
   id="svg4"
   sodipodi:docname="tape.svg"
   inkscape:version="1.2.2 (b0a8486541, 2022-12-01)"
   xmlns:inkscape="http://www.inkscape.org/namespaces/inkscape"
   xmlns:sodipodi="http://sodipodi.sourceforge.net/DTD/sodipodi-0.dtd"
   xmlns="http://www.w3.org/2000/svg"
   xmlns:svg="http://www.w3.org/2000/svg">
  <defs
     id="defs8" />
  <sodipodi:namedview
     id="namedview6"
     pagecolor="#ffffff"
     bordercolor="#000000"
     borderopacity="0.25"
     inkscape:showpageshadow="2"
     inkscape:pageopacity="0.0"
     inkscape:pagecheckerboard="0"
     inkscape:deskcolor="#d1d1d1"
     showgrid="false"
     inkscape:zoom="1.35625"
     inkscape:cx="320"
     inkscape:cy="320.36866"
     inkscape:window-width="1920"
     inkscape:window-height="1009"
     inkscape:window-x="1920"
     inkscape:window-y="32"
     inkscape:window-maximized="1"
     inkscape:current-layer="svg4" />
  <!--!Font Awesome Free v7.1.0 by @fontawesome - https://fontawesome.com License - https://fontawesome.com/license/free Copyright 2025 Fonticons, Inc.-->
  <path
     d="M444.8 480C486.3 439.3 512 382.7 512 320C512 196.3 411.7 96 288 96C164.3 96 64 196.3 64 320C64 443.7 164.3 544 288 544L576 544C593.7 544 608 529.7 608 512C608 494.3 593.7 480 576 480L444.8 480zM288 224C341 224 384 267 384 320C384 373 341 416 288 416C235 416 192 373 192 320C192 267 235 224 288 224zM336 320C336 293.5 314.5 272 288 272C261.5 272 240 293.5 240 320C240 346.5 261.5 368 288 368C314.5 368 336 346.5 336 320z"
     id="path2"
     style="fill:#ffbf00;fill-opacity:1" />
</svg>
