<?xml version="1.0" encoding="UTF-8" standalone="no"?>
<svg
   viewBox="0 0 640 640"
   version="1.1"
   id="svg4"
   sodipodi:docname="logo.svg"
   inkscape:version="1.2.2 (b0a8486541, 2022-12-01)"
   xmlns:inkscape="http://www.inkscape.org/namespaces/inkscape"
   xmlns:sodipodi="http://sodipodi.sourceforge.net/DTD/sodipodi-0.dtd"
   xmlns="http://www.w3.org/2000/svg"
   xmlns:svg="http://www.w3.org/2000/svg">
  <defs
     id="defs8" />
  <sodipodi:namedview
     id="namedview6"
     pagecolor="#ffffff"
     bordercolor="#000000"
     borderopacity="0.25"
     inkscape:showpageshadow="2"
     inkscape:pageopacity="0.0"
     inkscape:pagecheckerboard="0"
     inkscape:deskcolor="#d1d1d1"
     showgrid="false"
     inkscape:zoom="1.35625"
     inkscape:cx="320"
     inkscape:cy="321.10599"
     inkscape:window-width="1920"
     inkscape:window-height="1009"
     inkscape:window-x="1920"
     inkscape:window-y="32"
     inkscape:window-maximized="1"
     inkscape:current-layer="svg4" />
  <!--!Font Awesome Free v7.1.0 by @fontawesome - https://fontawesome.com License - https://fontawesome.com/license/free Copyright 2025 Fonticons, Inc.-->
  <path
     d="M256 144C256 108.7 284.7 80 320 80C355.3 80 384 108.7 384 144L384 192L256 192L256 144zM208 192L144 192C117.5 192 96 213.5 96 240L96 448C96 501 139 544 192 544L448 544C501 544 544 501 544 448L544 240C544 213.5 522.5 192 496 192L432 192L432 144C432 82.1 381.9 32 320 32C258.1 32 208 82.1 208 144L208 192zM232 240C245.3 240 256 250.7 256 264C256 277.3 245.3 288 232 288C218.7 288 208 277.3 208 264C208 250.7 218.7 240 232 240zM384 264C384 250.7 394.7 240 408 240C421.3 240 432 250.7 432 264C432 277.3 421.3 288 408 288C394.7 288 384 277.3 384 264z"
     id="path2"
     style="fill:#ffbf00;fill-opacity:1" />
</svg>
